<?xml version="1.0" encoding="utf-8"?>
<!-- Generator: Adobe Illustrator 16.0.0, SVG Export Plug-In . SVG Version: 6.00 Build 0)  -->
<!DOCTYPE svg PUBLIC "-//W3C//DTD SVG 1.1//EN" "http://www.w3.org/Graphics/SVG/1.1/DTD/svg11.dtd">
<svg version="1.1" id="Layer_1" xmlns="http://www.w3.org/2000/svg" xmlns:xlink="http://www.w3.org/1999/xlink" x="0px" y="0px"
	 width="100px" height="50px" viewBox="0 0 100 50" enable-background="new 0 0 100 50" xml:space="preserve">
<path fill="#4D4D4D" d="M27.998,42.944c-8.312-3.299-15.072-9.146-19.034-16.464L8.163,25l0.802-1.481
	c3.962-7.316,10.721-13.164,19.034-16.463l2.295,5.783C23.914,15.37,18.649,19.653,15.299,25c3.35,5.347,8.615,9.631,14.994,12.162
	L27.998,42.944z"/>
<path fill="#4D4D4D" d="M73.272,7.055c8.312,3.299,15.072,9.146,19.033,16.464L93.108,25l-0.803,1.481
	c-3.961,7.316-10.721,13.164-19.033,16.464l-2.295-5.783C77.356,34.629,82.622,30.346,85.972,25
	c-3.35-5.347-8.615-9.631-14.994-12.162L73.272,7.055z"/>
</svg>
