<?xml version="1.0" encoding="utf-8"?>
<!-- Generator: Adobe Illustrator 16.0.0, SVG Export Plug-In . SVG Version: 6.00 Build 0)  -->
<!DOCTYPE svg PUBLIC "-//W3C//DTD SVG 1.0//EN" "http://www.w3.org/TR/2001/REC-SVG-20010904/DTD/svg10.dtd">
<svg version="1.0" id="Layer_1" xmlns="http://www.w3.org/2000/svg" xmlns:xlink="http://www.w3.org/1999/xlink" x="0px" y="0px"
	 width="324px" height="364.731px" viewBox="0 0 324 364.731" enable-background="new 0 0 324 364.731" xml:space="preserve">
<path fill-rule="evenodd" clip-rule="evenodd" fill="#008DD9" d="M56.974,206.798c-26.257-14.215-40.041-46.665-34.661-75.586
	c0.251-1.346,1.039-2.395,2.258-3.012c17.612-8.895,47.194-8.896,64.805,0c1.219,0.617,2.008,1.667,2.259,3.012
	C97.013,160.133,83.231,192.583,56.974,206.798 M96.229,199.491c16.042-22.647,22.001-52.76,14.521-79.71
	c-0.668-2.411-1.968-4.284-3.992-5.75c-25.266-18.326-74.303-18.326-99.569-0.002c-2.025,1.469-3.323,3.342-3.993,5.753
	c-7.474,26.926-1.521,57.046,14.522,79.701c-4.154,45.304-0.054,100.527,7.454,126.769c1.851,6.468,6.145,11.256,12.369,13.802
	c12.576,5.144,26.288,5.144,38.866,0c6.223-2.546,10.516-7.334,12.366-13.802C96.28,300.013,100.382,244.795,96.229,199.491z
	 M42.543,56.494c0-7.971,6.46-14.432,14.43-14.432c7.97,0,14.432,6.461,14.432,14.432c0,7.969-6.462,14.431-14.432,14.431
	C49.004,70.924,42.543,64.463,42.543,56.494z M21.323,56.494c0,19.688,15.962,35.65,35.651,35.65c19.69,0,35.65-15.961,35.65-35.65
	c0-19.69-15.96-35.653-35.65-35.653C37.285,20.841,21.323,36.803,21.323,56.494z M52.787,228.322c2.773,1.193,5.6,1.193,8.373,0
	c5.524-2.369,10.676-5.341,15.431-8.802c-0.442,29.89,0.124,69.582-7.514,98.704c-0.376,1.435-1.369,2.488-2.775,2.953
	c-6.113,2.016-12.544,2.016-18.658,0c-1.406-0.465-2.398-1.519-2.774-2.953c-7.639-29.118-7.072-68.818-7.514-98.706
	C42.111,222.979,47.263,225.953,52.787,228.322z"/>
<path fill-rule="evenodd" clip-rule="evenodd" fill="#D9005A" d="M292.063,129.142c2.958,20.296-5.541,42.243-21.994,54.665
	c-1.472,1.112-3.008,2.147-4.604,3.098c-1.595-0.951-3.132-1.985-4.604-3.098c-16.454-12.421-24.949-34.368-21.992-54.665
	c0.22-1.505,1.132-2.691,2.53-3.29c7.509-3.217,17.125-4.421,24.065-4.421s16.557,1.204,24.066,4.421
	C290.931,126.451,291.843,127.636,292.063,129.142 M285.706,198.572c0.603,0.774,1.185,1.555,1.75,2.339
	c11.645,16.244,16.321,36.069,12.671,55.693c-0.25,1.345-1.038,2.394-2.26,3.012c-9.69,4.895-22.778,6.709-32.401,6.709
	c-9.624,0-22.709-1.814-32.403-6.709c-1.219-0.618-2.008-1.667-2.258-3.012c-3.649-19.622,1.026-39.449,12.671-55.693
	c0.563-0.784,1.148-1.564,1.748-2.339c4.783,3.987,10.107,7.361,15.918,9.955c2.853,1.272,5.795,1.272,8.649,0
	C275.6,205.934,280.926,202.56,285.706,198.572z M282.62,286.208c-0.836,10.385-2.436,22.051-5.051,32.017
	c-0.376,1.435-1.369,2.488-2.775,2.955c-2.977,0.98-6.096,1.511-9.328,1.511c-3.233,0-6.352-0.53-9.329-1.511
	c-1.407-0.467-2.397-1.521-2.775-2.955c-2.614-9.966-4.213-21.632-5.05-32.017c5.453,0.868,11.208,1.334,17.154,1.334
	C271.411,287.542,277.167,287.076,282.62,286.208z M229.816,56.494c0,19.688,15.96,35.65,35.649,35.65
	c19.688,0,35.651-15.961,35.651-35.65c0-19.69-15.963-35.651-35.651-35.651C245.776,20.843,229.816,36.803,229.816,56.494z
	 M251.034,56.494c0-7.971,6.461-14.432,14.432-14.432c7.97,0,14.43,6.461,14.43,14.432c0,7.969-6.46,14.431-14.43,14.431
	C257.495,70.924,251.034,64.463,251.034,56.494z M297.266,326.253c3.205-11.2,5.79-27.681,7.376-46.419
	c3.947-1.771,7.512-3.802,10.609-6.051c2.022-1.466,3.322-3.339,3.991-5.746c8.284-29.842,0.773-61.837-19.211-85.485
	c12.534-18.789,17.141-43.134,11.237-65.149c-0.672-2.512-2.038-4.46-4.169-5.951c-9.812-6.854-24.816-11.24-41.634-11.24
	c-16.816,0-31.822,4.385-41.633,11.238c-2.132,1.49-3.498,3.44-4.172,5.953c-5.899,22.016-1.296,46.36,11.24,65.149
	c-19.984,23.648-27.494,55.644-19.213,85.485c0.671,2.407,1.969,4.28,3.994,5.749c3.098,2.246,6.66,4.276,10.605,6.048
	c1.587,18.736,4.172,35.219,7.377,46.419c1.851,6.466,6.144,11.254,12.368,13.8c6.122,2.506,12.651,3.857,19.433,3.857
	c6.779,0,13.312-1.352,19.432-3.857C291.122,337.507,295.416,332.719,297.266,326.253z"/>
<path fill-rule="evenodd" clip-rule="evenodd" fill="#FFFFFF" d="M161.253,0.021c-0.414,0-2.879,81.643-2.879,182.356
	c0,100.712,2.465,182.354,2.879,182.354c0.415,0,2.879-81.642,2.879-182.354C164.133,81.665,161.668,0.021,161.253,0.021"/>
</svg>
