<?xml version="1.0" encoding="utf-8"?>
<!-- Generator: Adobe Illustrator 16.0.0, SVG Export Plug-In . SVG Version: 6.00 Build 0)  -->
<!DOCTYPE svg PUBLIC "-//W3C//DTD SVG 1.1//EN" "http://www.w3.org/Graphics/SVG/1.1/DTD/svg11.dtd">
<svg version="1.1" id="Layer_1" xmlns="http://www.w3.org/2000/svg" xmlns:xlink="http://www.w3.org/1999/xlink" x="0px" y="0px"
	 width="324px" height="364.73px" viewBox="0 0 324 364.73" enable-background="new 0 0 324 364.73" xml:space="preserve">
<path fill="#FFFFFF" d="M292.062,129.142c2.959,20.296-5.541,42.243-21.994,54.665c-1.471,1.112-3.008,2.147-4.604,3.099
	c-1.595-0.951-3.132-1.985-4.604-3.099c-16.454-12.421-24.949-34.368-21.992-54.665c0.22-1.505,1.132-2.69,2.529-3.29
	c7.51-3.217,17.125-4.421,24.065-4.421s16.558,1.204,24.065,4.421C290.932,126.451,291.843,127.636,292.062,129.142
	 M285.706,198.573c0.603,0.773,1.185,1.555,1.75,2.339c11.646,16.244,16.321,36.068,12.671,55.692
	c-0.25,1.346-1.038,2.395-2.26,3.013c-9.69,4.895-22.778,6.709-32.401,6.709c-9.624,0-22.709-1.814-32.403-6.709
	c-1.219-0.618-2.008-1.667-2.258-3.013c-3.648-19.622,1.026-39.449,12.672-55.692c0.562-0.784,1.147-1.564,1.748-2.339
	c4.782,3.986,10.106,7.36,15.918,9.954c2.853,1.272,5.795,1.272,8.648,0C275.6,205.934,280.926,202.56,285.706,198.573z
	 M282.62,286.208c-0.836,10.385-2.437,22.051-5.052,32.017c-0.375,1.436-1.368,2.488-2.774,2.955
	c-2.978,0.98-6.096,1.511-9.328,1.511c-3.233,0-6.352-0.529-9.329-1.511c-1.406-0.467-2.396-1.521-2.775-2.955
	c-2.613-9.966-4.213-21.632-5.049-32.017c5.453,0.868,11.207,1.334,17.153,1.334C271.411,287.542,277.167,287.076,282.62,286.208z
	 M229.816,56.494c0,19.688,15.959,35.649,35.648,35.649c19.688,0,35.651-15.961,35.651-35.649c0-19.69-15.964-35.651-35.651-35.651
	C245.775,20.843,229.816,36.803,229.816,56.494z M251.034,56.494c0-7.972,6.461-14.433,14.432-14.433
	c7.97,0,14.431,6.461,14.431,14.433c0,7.969-6.461,14.431-14.431,14.431C257.495,70.924,251.034,64.463,251.034,56.494z
	 M297.266,326.253c3.205-11.2,5.791-27.682,7.377-46.419c3.946-1.771,7.512-3.802,10.608-6.051c2.022-1.467,3.322-3.34,3.991-5.746
	c8.284-29.843,0.772-61.837-19.211-85.485c12.534-18.789,17.141-43.134,11.236-65.149c-0.672-2.512-2.037-4.46-4.169-5.95
	c-9.812-6.854-24.815-11.24-41.634-11.24c-16.816,0-31.822,4.385-41.633,11.238c-2.132,1.489-3.498,3.439-4.172,5.952
	c-5.898,22.017-1.297,46.36,11.24,65.149c-19.984,23.648-27.494,55.644-19.213,85.485c0.67,2.406,1.969,4.279,3.994,5.749
	c3.098,2.246,6.659,4.275,10.604,6.048c1.587,18.735,4.172,35.219,7.377,46.419c1.851,6.466,6.144,11.254,12.368,13.8
	c6.121,2.506,12.65,3.857,19.433,3.857c6.779,0,13.312-1.353,19.433-3.857C291.122,337.507,295.416,332.719,297.266,326.253z"/>
</svg>
