<?xml version="1.0" encoding="utf-8"?>
<!-- Generator: Adobe Illustrator 16.0.0, SVG Export Plug-In . SVG Version: 6.00 Build 0)  -->
<!DOCTYPE svg PUBLIC "-//W3C//DTD SVG 1.0//EN" "http://www.w3.org/TR/2001/REC-SVG-20010904/DTD/svg10.dtd">
<svg version="1.0" id="Layer_1" xmlns="http://www.w3.org/2000/svg" xmlns:xlink="http://www.w3.org/1999/xlink" x="0px" y="0px"
	 width="324px" height="377px" viewBox="0 0 324 377" enable-background="new 0 0 324 377" xml:space="preserve">
<path fill="#FFFFFF" d="M58.411,211.798c-26.257-14.215-40.041-46.665-34.661-75.586c0.251-1.346,1.039-2.396,2.258-3.012
	c17.612-8.896,47.194-8.896,64.806,0c1.219,0.616,2.008,1.667,2.259,3.012C98.45,165.133,84.668,197.583,58.411,211.798
	 M97.666,204.491c16.042-22.646,22.001-52.761,14.521-79.71c-0.668-2.411-1.968-4.284-3.992-5.75
	c-25.266-18.326-74.303-18.326-99.569-0.003c-2.024,1.47-3.322,3.343-3.993,5.754c-7.474,26.926-1.521,57.046,14.522,79.7
	c-4.154,45.305-0.054,100.527,7.454,126.77c1.851,6.469,6.145,11.256,12.369,13.803c12.576,5.145,26.288,5.145,38.866,0
	c6.223-2.547,10.516-7.334,12.365-13.803C97.717,305.014,101.819,249.795,97.666,204.491z M43.98,61.494
	c0-7.972,6.46-14.433,14.43-14.433s14.432,6.461,14.432,14.433c0,7.969-6.462,14.431-14.432,14.431
	C50.441,75.924,43.98,69.463,43.98,61.494z M22.76,61.494c0,19.688,15.963,35.649,35.651,35.649c19.69,0,35.65-15.961,35.65-35.649
	c0-19.689-15.96-35.653-35.65-35.653C38.723,25.841,22.76,41.804,22.76,61.494z M54.225,233.323c2.772,1.192,5.6,1.192,8.373,0
	c5.523-2.369,10.676-5.342,15.431-8.803c-0.442,29.891,0.124,69.582-7.514,98.704c-0.376,1.436-1.369,2.487-2.775,2.953
	c-6.113,2.016-12.544,2.016-18.658,0c-1.406-0.466-2.397-1.52-2.773-2.953c-7.64-29.118-7.072-68.817-7.515-98.706
	C43.548,227.979,48.7,230.953,54.225,233.323z"/>
<path fill="#FFFFFF" d="M162.69,5.021c-0.414,0-2.879,81.644-2.879,182.356c0,100.712,2.465,182.354,2.879,182.354
	c0.415,0,2.879-81.642,2.879-182.354C165.57,86.665,163.105,5.021,162.69,5.021"/>
<path fill="#FFFFFF" d="M293.499,134.143c2.959,20.296-5.541,42.243-21.994,54.665c-1.471,1.111-3.008,2.146-4.604,3.099
	c-1.595-0.951-3.132-1.985-4.604-3.099c-16.454-12.421-24.948-34.368-21.991-54.665c0.22-1.505,1.132-2.69,2.528-3.29
	c7.511-3.217,17.125-4.421,24.065-4.421c6.939,0,16.558,1.204,24.064,4.421C292.369,131.451,293.28,132.637,293.499,134.143
	 M287.144,203.573c0.603,0.773,1.185,1.555,1.75,2.339c11.646,16.244,16.32,36.068,12.671,55.692
	c-0.25,1.346-1.038,2.395-2.26,3.013c-9.69,4.896-22.778,6.709-32.401,6.709c-9.624,0-22.709-1.813-32.403-6.709
	c-1.219-0.618-2.008-1.667-2.258-3.013c-3.648-19.622,1.026-39.449,12.672-55.692c0.562-0.784,1.147-1.563,1.748-2.339
	c4.782,3.986,10.106,7.36,15.918,9.954c2.854,1.271,5.795,1.271,8.648,0C277.037,210.935,282.363,207.561,287.144,203.573z
	 M284.058,291.208c-0.836,10.386-2.438,22.052-5.053,32.018c-0.375,1.436-1.367,2.487-2.773,2.955
	c-2.979,0.979-6.097,1.511-9.328,1.511c-3.233,0-6.353-0.529-9.329-1.511c-1.406-0.468-2.396-1.521-2.775-2.955
	c-2.612-9.966-4.213-21.632-5.049-32.018c5.453,0.868,11.207,1.334,17.153,1.334C272.849,292.542,278.604,292.076,284.058,291.208z
	 M231.253,61.494c0,19.688,15.959,35.649,35.648,35.649c19.688,0,35.65-15.961,35.65-35.649c0-19.689-15.964-35.65-35.65-35.65
	C247.212,25.844,231.253,41.804,231.253,61.494z M252.472,61.494c0-7.972,6.461-14.433,14.432-14.433
	c7.97,0,14.431,6.461,14.431,14.433c0,7.969-6.461,14.431-14.431,14.431C258.933,75.924,252.472,69.463,252.472,61.494z
	 M298.703,331.253c3.205-11.199,5.791-27.682,7.377-46.419c3.946-1.771,7.512-3.802,10.608-6.051c2.021-1.467,3.321-3.34,3.99-5.746
	c8.284-29.843,0.772-61.837-19.211-85.484c12.534-18.789,17.142-43.135,11.236-65.149c-0.672-2.512-2.037-4.46-4.169-5.95
	c-9.812-6.854-24.814-11.24-41.634-11.24c-16.816,0-31.822,4.386-41.633,11.238c-2.133,1.489-3.498,3.439-4.172,5.952
	c-5.898,22.017-1.298,46.36,11.239,65.149c-19.983,23.647-27.494,55.644-19.213,85.484c0.67,2.406,1.969,4.279,3.994,5.749
	c3.098,2.246,6.659,4.275,10.604,6.048c1.587,18.735,4.172,35.22,7.377,46.419c1.851,6.467,6.144,11.254,12.367,13.801
	c6.121,2.506,12.65,3.856,19.434,3.856c6.779,0,13.312-1.353,19.433-3.856C292.56,342.507,296.854,337.72,298.703,331.253z"/>
</svg>
