<?xml version="1.0" encoding="utf-8"?>
<!-- Generator: Adobe Illustrator 16.0.0, SVG Export Plug-In . SVG Version: 6.00 Build 0)  -->
<!DOCTYPE svg PUBLIC "-//W3C//DTD SVG 1.1//EN" "http://www.w3.org/Graphics/SVG/1.1/DTD/svg11.dtd">
<svg version="1.1" id="Layer_1" xmlns="http://www.w3.org/2000/svg" xmlns:xlink="http://www.w3.org/1999/xlink" x="0px" y="0px"
	 width="324px" height="364.73px" viewBox="0 0 324 364.73" enable-background="new 0 0 324 364.73" xml:space="preserve">
<path fill="#FFFFFF" d="M56.974,206.798c-26.257-14.215-40.041-46.665-34.661-75.586c0.251-1.346,1.039-2.396,2.258-3.012
	c17.612-8.896,47.194-8.896,64.805,0c1.219,0.616,2.008,1.667,2.259,3.012C97.013,160.133,83.231,192.583,56.974,206.798
	 M96.229,199.491c16.042-22.647,22.001-52.761,14.521-79.71c-0.668-2.411-1.968-4.284-3.992-5.75
	c-25.266-18.326-74.303-18.326-99.569-0.003c-2.025,1.47-3.323,3.343-3.993,5.754c-7.474,26.926-1.521,57.046,14.522,79.7
	c-4.154,45.305-0.054,100.527,7.454,126.77c1.851,6.468,6.145,11.256,12.369,13.802c12.576,5.145,26.288,5.145,38.866,0
	c6.223-2.546,10.516-7.334,12.366-13.802C96.28,300.013,100.382,244.795,96.229,199.491z M42.543,56.494
	c0-7.972,6.46-14.433,14.43-14.433c7.97,0,14.432,6.461,14.432,14.433c0,7.969-6.462,14.431-14.432,14.431
	C49.004,70.924,42.543,64.463,42.543,56.494z M21.323,56.494c0,19.688,15.962,35.649,35.651,35.649
	c19.69,0,35.65-15.961,35.65-35.649c0-19.69-15.96-35.653-35.65-35.653C37.285,20.841,21.323,36.803,21.323,56.494z M52.787,228.323
	c2.773,1.192,5.6,1.192,8.373,0c5.524-2.369,10.676-5.342,15.431-8.803c-0.442,29.891,0.124,69.582-7.514,98.704
	c-0.376,1.436-1.369,2.488-2.775,2.953c-6.113,2.016-12.544,2.016-18.658,0c-1.406-0.465-2.398-1.519-2.774-2.953
	c-7.639-29.118-7.072-68.817-7.514-98.706C42.111,222.979,47.263,225.953,52.787,228.323z"/>
</svg>
