<?xml version="1.0" encoding="utf-8"?>
<!-- Generator: Adobe Illustrator 16.0.0, SVG Export Plug-In . SVG Version: 6.00 Build 0)  -->
<!DOCTYPE svg PUBLIC "-//W3C//DTD SVG 1.1//EN" "http://www.w3.org/Graphics/SVG/1.1/DTD/svg11.dtd">
<svg version="1.1" id="Layer_1" xmlns="http://www.w3.org/2000/svg" xmlns:xlink="http://www.w3.org/1999/xlink" x="0px" y="0px"
	 width="378.392px" height="63.806px" viewBox="0 0 378.392 63.806" style="enable-background:new 0 0 378.392 63.806;"
	 xml:space="preserve">
<style type="text/css">
<![CDATA[
	.st0{fill:#848688;}
	.st1{fill:#BDBFC1;}
	.st2{fill-rule:evenodd;clip-rule:evenodd;fill:#BDBFC1;}
]]>
</style>
<path class="st1" d="M375.487,58.429c-0.53,0-0.965-0.046-1.305-0.137c-0.34-0.092-0.649-0.229-0.929-0.41l0.335-0.923
	c0.215,0.135,0.459,0.245,0.733,0.331c0.274,0.087,0.589,0.13,0.942,0.13c0.549,0,0.986-0.168,1.312-0.504
	c0.326-0.337,0.489-0.788,0.489-1.354c0-0.442-0.126-0.808-0.377-1.096c-0.252-0.288-0.717-0.571-1.396-0.851
	c-0.68-0.278-1.172-0.646-1.479-1.103c-0.307-0.456-0.461-0.958-0.461-1.505c0-0.77,0.249-1.425,0.747-1.968
	c0.498-0.542,1.152-0.814,1.961-0.814c0.438,0,0.816,0.046,1.139,0.138c0.32,0.091,0.598,0.223,0.83,0.396l-0.307,0.836
	c-0.214-0.134-0.444-0.245-0.691-0.331c-0.246-0.087-0.523-0.13-0.83-0.13c-0.503,0-0.895,0.158-1.174,0.476
	c-0.278,0.317-0.418,0.74-0.418,1.269c0,0.461,0.14,0.826,0.418,1.095c0.279,0.27,0.76,0.543,1.438,0.821
	c0.68,0.279,1.171,0.658,1.473,1.139c0.303,0.48,0.454,0.999,0.454,1.557c0,0.864-0.27,1.57-0.81,2.118
	S376.344,58.429,375.487,58.429 M365.937,50.763c-0.118-0.395-0.19-0.675-0.213-0.844c-0.023-0.168-0.045-0.285-0.063-0.353
	c-0.028,0.115-0.061,0.25-0.1,0.403c-0.037,0.153-0.114,0.415-0.226,0.79l-1.147,3.764h2.876L365.937,50.763z M368.173,58.285
	l-0.909-2.969h-3.292l-0.929,2.971l-1.18-0.002l3.253-9.915h1.145l3.238,9.915H368.173z M356.294,58.285V48.37h1.283v9.915H356.294z
	 M348.183,49.004c-0.475,0-0.837,0.072-1.089,0.217v4.164c0.187,0.058,0.461,0.087,0.824,0.087c0.772,0,1.352-0.189,1.737-0.571
	c0.387-0.38,0.58-0.938,0.58-1.67C350.235,49.746,349.551,49.004,348.183,49.004z M350.277,58.285l-3.155-4.626l-0.028,4.626h-1.271
	v-9.526c0.271-0.153,0.612-0.28,1.026-0.382c0.414-0.101,0.868-0.151,1.361-0.151c1.07,0,1.887,0.258,2.45,0.771
	c0.562,0.517,0.844,1.239,0.844,2.171c0,0.839-0.265,1.501-0.793,1.991c-0.528,0.492-1.233,0.737-2.112,0.737l3.129,4.389H350.277z
	 M338.004,50.763c-0.118-0.385-0.19-0.661-0.214-0.829s-0.044-0.281-0.062-0.339c-0.028,0.105-0.061,0.233-0.101,0.382
	c-0.037,0.149-0.114,0.408-0.226,0.783l-1.146,3.764h2.875L338.004,50.763z M340.24,58.285l-0.91-2.969h-3.292l-0.928,2.971
	l-1.18-0.002l3.252-9.915h1.146l3.238,9.915H340.24z M337.923,47.621h-0.698l0.978-1.975c0.26-0.163,0.525-0.245,0.796-0.245
	c0.288,0,0.46,0.087,0.516,0.26L337.923,47.621z M328.444,49.249v9.036h-1.284v-9.036h-1.913V48.37h5.109v0.879H328.444z
	 M319.524,58.285V48.37h1.284v9.915H319.524z M313.326,58.285l-4.09-7.234c-0.084-0.154-0.188-0.355-0.314-0.605
	c-0.125-0.25-0.226-0.447-0.3-0.591c0,0.153,0,0.326,0,0.519s0,0.428,0,0.706v7.206h-1.061V48.37h1.354l3.935,6.953
	c0.144,0.252,0.261,0.476,0.349,0.668c0.086,0.191,0.146,0.324,0.184,0.392c0-0.145,0-0.283,0-0.418s0-0.289,0-0.462v-0.216V48.37
	h1.062v9.915H313.326z M299.77,50.763c-0.119-0.395-0.191-0.675-0.214-0.844c-0.023-0.168-0.045-0.285-0.063-0.353
	c-0.027,0.115-0.061,0.25-0.1,0.403c-0.037,0.153-0.114,0.415-0.226,0.79l-1.147,3.764h2.876L299.77,50.763z M302.005,58.285
	l-0.909-2.969h-3.293l-0.928,2.971l-1.18-0.002l3.253-9.915h1.145l3.238,9.915H302.005z M288.883,58.429
	c-0.53,0-0.965-0.046-1.305-0.137c-0.34-0.092-0.649-0.229-0.929-0.41l0.335-0.923c0.214,0.135,0.458,0.245,0.733,0.331
	c0.274,0.087,0.589,0.13,0.941,0.13c0.55,0,0.987-0.168,1.312-0.504c0.326-0.337,0.489-0.788,0.489-1.354
	c0-0.442-0.126-0.808-0.378-1.096c-0.251-0.288-0.716-0.571-1.396-0.851c-0.68-0.278-1.173-0.646-1.479-1.103
	c-0.308-0.456-0.461-0.958-0.461-1.505c0-0.77,0.249-1.425,0.747-1.968c0.498-0.542,1.151-0.814,1.961-0.814
	c0.438,0,0.816,0.046,1.138,0.138c0.321,0.091,0.599,0.223,0.831,0.396l-0.308,0.836c-0.214-0.134-0.444-0.245-0.69-0.331
	c-0.247-0.087-0.523-0.13-0.831-0.13c-0.502,0-0.894,0.158-1.173,0.476c-0.278,0.317-0.419,0.74-0.419,1.269
	c0,0.461,0.141,0.826,0.419,1.095c0.279,0.27,0.759,0.543,1.438,0.821c0.68,0.279,1.17,0.658,1.473,1.139s0.453,0.999,0.453,1.557
	c0,0.864-0.27,1.57-0.809,2.118C290.438,58.155,289.739,58.429,288.883,58.429z M270.833,58.429c-0.53,0-0.965-0.046-1.305-0.137
	c-0.34-0.092-0.649-0.229-0.929-0.41l0.335-0.923c0.214,0.135,0.458,0.245,0.733,0.331c0.274,0.087,0.589,0.13,0.942,0.13
	c0.549,0,0.986-0.168,1.312-0.504c0.326-0.337,0.489-0.788,0.489-1.354c0-0.442-0.126-0.808-0.377-1.096
	c-0.252-0.288-0.717-0.571-1.396-0.851c-0.68-0.278-1.173-0.646-1.479-1.103c-0.308-0.456-0.461-0.958-0.461-1.505
	c0-0.77,0.249-1.425,0.747-1.968c0.498-0.542,1.151-0.814,1.961-0.814c0.438,0,0.816,0.046,1.138,0.138
	c0.321,0.091,0.599,0.223,0.831,0.396l-0.307,0.836c-0.215-0.134-0.445-0.245-0.691-0.331c-0.247-0.087-0.523-0.13-0.831-0.13
	c-0.502,0-0.894,0.158-1.173,0.476c-0.278,0.317-0.418,0.74-0.418,1.269c0,0.461,0.14,0.826,0.418,1.095
	c0.279,0.27,0.759,0.543,1.438,0.821c0.679,0.279,1.17,0.658,1.473,1.139s0.453,0.999,0.453,1.557c0,0.864-0.27,1.57-0.809,2.118
	C272.388,58.155,271.689,58.429,270.833,58.429z M261.282,50.763c-0.118-0.395-0.19-0.675-0.214-0.844
	c-0.022-0.168-0.044-0.285-0.062-0.353c-0.028,0.115-0.061,0.25-0.1,0.403c-0.038,0.153-0.114,0.415-0.226,0.79l-1.147,3.764h2.876
	L261.282,50.763z M263.519,58.285l-0.909-2.969h-3.293l-0.928,2.971l-1.18-0.002l3.252-9.915h1.146l3.238,9.915H263.519z
	 M251.639,58.285V48.37h1.284v9.915H251.639z M243.528,49.004c-0.475,0-0.837,0.072-1.089,0.217v4.164
	c0.187,0.058,0.461,0.087,0.824,0.087c0.772,0,1.352-0.189,1.737-0.571c0.387-0.38,0.58-0.938,0.58-1.67
	C245.581,49.746,244.896,49.004,243.528,49.004z M245.623,58.285l-3.155-4.626l-0.028,4.626h-1.271v-9.526
	c0.271-0.153,0.612-0.28,1.026-0.382c0.414-0.101,0.868-0.151,1.361-0.151c1.07,0,1.887,0.258,2.45,0.771
	c0.562,0.517,0.844,1.239,0.844,2.171c0,0.839-0.265,1.501-0.793,1.991c-0.528,0.492-1.233,0.737-2.113,0.737l3.13,4.389H245.623z
	 M232.961,49.105c-0.8,0-1.363,0.398-1.688,1.195c-0.326,0.798-0.489,1.792-0.489,2.983c0,1.22,0.156,2.219,0.468,2.998
	c0.312,0.777,0.882,1.167,1.71,1.167c0.819,0,1.385-0.392,1.696-1.175s0.468-1.779,0.468-2.99c0-1.201-0.16-2.197-0.481-2.99
	S233.762,49.105,232.961,49.105z M232.961,58.429c-1.182,0-2.057-0.471-2.624-1.412c-0.568-0.941-0.852-2.171-0.852-3.689
	c0-1.518,0.283-2.747,0.852-3.688c0.567-0.941,1.442-1.413,2.624-1.413c1.173,0,2.043,0.472,2.611,1.413
	c0.567,0.941,0.852,2.171,0.852,3.688c0,1.528-0.282,2.76-0.845,3.696C235.016,57.961,234.143,58.429,232.961,58.429z
	 M232.933,47.621h-0.697l0.978-1.975c0.261-0.163,0.53-0.245,0.81-0.245c0.278,0,0.446,0.087,0.502,0.26L232.933,47.621z
	 M222.185,58.429c-0.531,0-0.966-0.046-1.306-0.137c-0.34-0.092-0.649-0.229-0.928-0.41l0.335-0.923
	c0.214,0.135,0.458,0.245,0.732,0.331c0.274,0.087,0.589,0.13,0.942,0.13c0.549,0,0.986-0.168,1.312-0.504
	c0.325-0.337,0.488-0.788,0.488-1.354c0-0.442-0.126-0.808-0.377-1.096s-0.717-0.571-1.396-0.851
	c-0.68-0.278-1.173-0.646-1.479-1.103c-0.308-0.456-0.461-0.958-0.461-1.505c0-0.77,0.249-1.425,0.747-1.968
	c0.497-0.542,1.151-0.814,1.961-0.814c0.438,0,0.816,0.046,1.138,0.138c0.321,0.091,0.598,0.223,0.831,0.396l-0.308,0.836
	c-0.214-0.134-0.444-0.245-0.69-0.331c-0.247-0.087-0.524-0.13-0.831-0.13c-0.503,0-0.894,0.158-1.173,0.476
	s-0.419,0.74-0.419,1.269c0,0.461,0.14,0.826,0.419,1.095c0.279,0.27,0.759,0.543,1.438,0.821c0.68,0.279,1.171,0.658,1.473,1.139
	c0.303,0.48,0.454,0.999,0.454,1.557c0,0.864-0.27,1.57-0.81,2.118S223.04,58.429,222.185,58.429z M214.046,58.285V48.37h1.284
	v9.915H214.046z M206.955,58.285h-1.117l-2.848-9.915h1.368l1.771,6.975c0.056,0.222,0.109,0.449,0.155,0.685
	c0.047,0.235,0.089,0.439,0.126,0.612l0.312-1.299l1.804-6.97l1.222-0.003L206.955,58.285z M197.351,58.285V48.37h1.284v9.915
	H197.351z M188.569,49.076c-0.475,0-0.869,0.067-1.186,0.202v8.026c0.307,0.125,0.707,0.188,1.2,0.188
	c0.949,0,1.634-0.354,2.052-1.06c0.419-0.706,0.628-1.779,0.628-3.221C191.264,50.455,190.366,49.076,188.569,49.076z
	 M188.653,58.429c-0.559,0-1.051-0.048-1.479-0.144c-0.429-0.097-0.781-0.227-1.061-0.39v-9.122c0.642-0.365,1.47-0.548,2.484-0.548
	c1.304,0,2.294,0.442,2.974,1.326s1.019,2.108,1.019,3.675c0,1.604-0.325,2.873-0.977,3.805S189.976,58.429,188.653,58.429z
	 M168.385,58.285V48.37h4.453v0.879h-3.169v3.474h2.848v0.879h-2.848v3.804h3.169v0.88H168.385z M159.646,49.076
	c-0.475,0-0.87,0.067-1.187,0.202v8.026c0.308,0.125,0.708,0.188,1.201,0.188c0.949,0,1.633-0.354,2.052-1.06
	s0.628-1.779,0.628-3.221C162.34,50.455,161.442,49.076,159.646,49.076z M159.729,58.429c-0.559,0-1.052-0.048-1.48-0.144
	c-0.428-0.097-0.781-0.227-1.061-0.39v-9.122c0.643-0.365,1.471-0.548,2.485-0.548c1.303,0,2.294,0.442,2.974,1.326
	c0.679,0.884,1.019,2.108,1.019,3.675c0,1.604-0.326,2.873-0.978,3.805S161.051,58.429,159.729,58.429z M140.897,58.429
	c-0.53,0-0.965-0.046-1.305-0.137c-0.34-0.092-0.649-0.229-0.929-0.41l0.335-0.923c0.215,0.135,0.459,0.245,0.733,0.331
	c0.274,0.087,0.589,0.13,0.942,0.13c0.549,0,0.986-0.168,1.312-0.504c0.326-0.337,0.489-0.788,0.489-1.354
	c0-0.442-0.126-0.808-0.377-1.096c-0.252-0.288-0.717-0.571-1.396-0.851c-0.679-0.278-1.172-0.646-1.479-1.103
	c-0.308-0.456-0.46-0.958-0.46-1.505c0-0.77,0.248-1.425,0.746-1.968c0.498-0.542,1.151-0.814,1.961-0.814
	c0.438,0,0.817,0.046,1.139,0.138c0.32,0.091,0.598,0.223,0.83,0.396l-0.307,0.836c-0.214-0.134-0.445-0.245-0.691-0.331
	c-0.246-0.087-0.523-0.13-0.83-0.13c-0.503,0-0.894,0.158-1.173,0.476s-0.419,0.74-0.419,1.269c0,0.461,0.14,0.826,0.419,1.095
	c0.279,0.27,0.759,0.543,1.438,0.821c0.68,0.279,1.171,0.658,1.473,1.139c0.303,0.48,0.454,0.999,0.454,1.557
	c0,0.864-0.27,1.57-0.81,2.118S141.754,58.429,140.897,58.429z M131.348,50.763c-0.119-0.395-0.191-0.675-0.214-0.844
	c-0.023-0.168-0.045-0.285-0.063-0.353c-0.027,0.115-0.061,0.25-0.1,0.403c-0.038,0.153-0.114,0.415-0.226,0.79l-1.147,3.764h2.876
	L131.348,50.763z M133.583,58.285l-0.909-2.969h-3.293l-0.928,2.971l-1.18-0.002l3.253-9.915h1.145l3.238,9.915H133.583z
	 M122.169,58.282l-0.744-7.419c-0.019-0.23-0.033-0.464-0.044-0.699c-0.01-0.235-0.02-0.392-0.028-0.468
	c-0.037,0.144-0.077,0.305-0.119,0.482c-0.041,0.178-0.1,0.406-0.174,0.685l-2.036,7.422h-0.852l-2.01-7.437
	c-0.065-0.23-0.119-0.459-0.165-0.685c-0.047-0.226-0.077-0.382-0.096-0.468c-0.021,0.144-0.035,0.298-0.044,0.461
	c-0.01,0.163-0.028,0.394-0.059,0.691l-0.761,7.437h-1.096l1.145-9.915l1.361-0.003l1.922,7.165
	c0.084,0.317,0.139,0.553,0.165,0.706c0.027,0.154,0.056,0.293,0.083,0.418c0.028-0.115,0.059-0.257,0.096-0.425
	c0.037-0.169,0.096-0.399,0.177-0.688l1.985-7.174h1.358l1.145,9.915L122.169,58.282z M105.218,58.285V48.37h4.453v0.879h-3.169
	v3.474h2.848v0.879h-2.848v3.804h3.169v0.88H105.218z M98.922,49.249v9.036h-1.284v-9.036h-1.912V48.37h5.108v0.879H98.922z
	 M88.76,58.429c-0.531,0-0.966-0.046-1.306-0.137c-0.34-0.092-0.649-0.229-0.929-0.41l0.335-0.923
	c0.215,0.135,0.459,0.245,0.733,0.331c0.274,0.087,0.589,0.13,0.942,0.13c0.549,0,0.986-0.168,1.312-0.504
	c0.325-0.337,0.488-0.788,0.488-1.354c0-0.442-0.126-0.808-0.377-1.096c-0.252-0.288-0.717-0.571-1.396-0.851
	c-0.68-0.278-1.172-0.646-1.479-1.103c-0.307-0.456-0.461-0.958-0.461-1.505c0-0.77,0.249-1.425,0.747-1.968
	c0.498-0.542,1.152-0.814,1.961-0.814c0.438,0,0.817,0.046,1.139,0.138c0.32,0.091,0.598,0.223,0.83,0.396l-0.307,0.836
	c-0.215-0.134-0.444-0.245-0.691-0.331c-0.246-0.087-0.523-0.13-0.83-0.13c-0.503,0-0.895,0.158-1.173,0.476
	c-0.279,0.317-0.419,0.74-0.419,1.269c0,0.461,0.14,0.826,0.419,1.095c0.278,0.27,0.759,0.543,1.438,0.821
	c0.68,0.279,1.171,0.658,1.473,1.139c0.303,0.48,0.454,0.999,0.454,1.557c0,0.864-0.27,1.57-0.81,2.118S89.615,58.429,88.76,58.429z
	 M80.621,58.285V48.37h1.284v9.915H80.621z M72.957,58.429c-0.53,0-0.966-0.046-1.305-0.137c-0.341-0.092-0.649-0.229-0.929-0.41
	l0.335-0.923c0.214,0.135,0.458,0.245,0.733,0.331c0.273,0.087,0.588,0.13,0.941,0.13c0.549,0,0.986-0.168,1.312-0.504
	c0.326-0.337,0.488-0.788,0.488-1.354c0-0.442-0.125-0.808-0.377-1.096c-0.251-0.288-0.717-0.571-1.396-0.851
	c-0.68-0.278-1.173-0.646-1.479-1.103c-0.308-0.456-0.461-0.958-0.461-1.505c0-0.77,0.249-1.425,0.747-1.968
	c0.497-0.542,1.151-0.814,1.961-0.814c0.438,0,0.816,0.046,1.138,0.138c0.321,0.091,0.598,0.223,0.831,0.396l-0.308,0.836
	c-0.214-0.134-0.444-0.245-0.69-0.331c-0.247-0.087-0.524-0.13-0.831-0.13c-0.502,0-0.894,0.158-1.173,0.476
	s-0.419,0.74-0.419,1.269c0,0.461,0.14,0.826,0.419,1.095c0.279,0.27,0.759,0.543,1.438,0.821c0.679,0.279,1.17,0.658,1.473,1.139
	s0.453,0.999,0.453,1.557c0,0.864-0.27,1.57-0.81,2.118S73.813,58.429,72.957,58.429z"/>
<path class="st0" d="M178.183,40.604V5.738h7.952v34.866H178.183z M158.987,40.604l-11.241-19.562
	c-0.426-0.743-0.794-1.47-1.104-2.179c-0.312-0.71-0.532-1.199-0.663-1.47c0.032,0.473,0.058,1.021,0.073,1.646
	c0.017,0.625,0.025,1.343,0.025,2.154v19.409H139.4V5.738h7.02l10.358,17.89c0.523,0.912,0.916,1.639,1.179,2.179
	c0.262,0.541,0.441,0.929,0.54,1.165c-0.033-0.438-0.058-0.937-0.074-1.494s-0.024-1.225-0.024-2.002V5.738h6.726v34.866H158.987z
	 M115.1,17.09c-0.295-1.115-0.482-1.968-0.564-2.559c-0.082-0.592-0.155-1.141-0.222-1.647c-0.064,0.473-0.146,0.921-0.245,1.343
	c-0.098,0.423-0.343,1.377-0.736,2.863l-3.142,11.352h7.904L115.1,17.09z M121.235,40.604l-2.062-7.45h-10.161l-2.16,7.45h-7.118
	L110.73,5.738h7.757l10.947,34.866H121.235z M79.558,41.111c-2.127,0-3.87-0.169-5.229-0.507s-2.561-0.861-3.608-1.571l1.816-5.727
	c0.688,0.473,1.481,0.861,2.381,1.166c0.9,0.304,1.923,0.456,3.068,0.456c1.375,0,2.472-0.372,3.289-1.115
	c0.818-0.743,1.228-1.757,1.228-3.04c0-1.149-0.344-2.095-1.031-2.838c-0.688-0.744-2.07-1.597-4.147-2.56
	c-2.078-0.963-3.642-2.298-4.688-4.004s-1.571-3.505-1.571-5.397c0-3.04,0.981-5.591,2.945-7.651
	c1.964-2.062,4.55-3.092,7.757-3.092c1.8,0,3.33,0.169,4.59,0.507s2.364,0.845,3.314,1.521l-1.67,5.017
	c-0.72-0.473-1.489-0.844-2.307-1.114c-0.818-0.271-1.735-0.405-2.75-0.405c-2.716,0-4.074,1.334-4.074,4.003
	c0,1.183,0.36,2.146,1.08,2.889s2.233,1.647,4.541,2.712c2.307,1.063,3.951,2.424,4.934,4.079s1.473,3.564,1.473,5.727
	c0,3.142-1.056,5.752-3.166,7.829C85.62,40.072,82.896,41.111,79.558,41.111z"/>
<path class="st1" d="M374.222,40.596l-2.619-26.09c-0.065-0.812-0.114-1.631-0.155-2.458c-0.032-0.828-0.065-1.377-0.099-1.647
	c-0.131,0.507-0.27,1.073-0.416,1.698c-0.147,0.625-0.353,1.427-0.614,2.407l-7.159,26.099h-2.995l-7.068-26.149
	c-0.229-0.811-0.417-1.613-0.581-2.407s-0.271-1.343-0.336-1.647c-0.073,0.507-0.122,1.048-0.155,1.622
	c-0.032,0.574-0.099,1.385-0.204,2.433l-2.676,26.149h-3.854l4.025-34.866l4.786-0.009l6.759,25.195
	c0.294,1.115,0.49,1.942,0.581,2.483c0.098,0.541,0.196,1.03,0.294,1.47c0.099-0.405,0.205-0.903,0.336-1.495
	c0.131-0.591,0.335-1.402,0.621-2.416l6.979-25.229h4.778l4.025,34.866L374.222,40.596z M317.995,40.604V5.738h15.66V8.83h-11.144
	v12.213h10.015v3.092h-10.015v13.378h11.144v3.092H317.995z M299.242,8.83v31.774h-4.517V8.83H288V5.738h17.968V8.83H299.242z
	 M266.891,41.111c-1.865,0-3.396-0.16-4.59-0.481s-2.282-0.803-3.265-1.444l1.178-3.243c0.753,0.473,1.612,0.861,2.578,1.165
	c0.965,0.305,2.07,0.456,3.313,0.456c1.931,0,3.469-0.591,4.614-1.773s1.719-2.771,1.719-4.764c0-1.554-0.442-2.838-1.326-3.852
	c-0.883-1.014-2.52-2.01-4.908-2.989c-2.39-0.98-4.124-2.272-5.204-3.877c-1.08-1.605-1.62-3.371-1.62-5.296
	c0-2.703,0.876-5.009,2.627-6.918c1.75-1.909,4.05-2.863,6.896-2.863c1.539,0,2.872,0.16,4.002,0.481
	c1.128,0.321,2.102,0.786,2.92,1.394l-1.08,2.939c-0.752-0.473-1.562-0.861-2.43-1.166c-0.867-0.304-1.841-0.456-2.921-0.456
	c-1.768,0-3.142,0.558-4.124,1.673c-0.981,1.115-1.473,2.602-1.473,4.46c0,1.621,0.491,2.905,1.473,3.852
	c0.982,0.945,2.668,1.908,5.057,2.888c2.389,0.98,4.115,2.314,5.18,4.004c1.063,1.689,1.595,3.514,1.595,5.474
	c0,3.04-0.948,5.523-2.847,7.449S269.901,41.111,266.891,41.111z M240.136,25.147v15.457h-4.517V25.147l-9.18-19.409l4.819,0.025
	l6.758,15.795l7.077-15.82h4.32L240.136,25.147z M205.968,41.111c-1.865,0-3.395-0.16-4.59-0.481
	c-1.194-0.321-2.282-0.803-3.265-1.444l1.179-3.243c0.752,0.473,1.611,0.861,2.577,1.165c0.966,0.305,2.07,0.456,3.313,0.456
	c1.932,0,3.469-0.591,4.614-1.773s1.719-2.771,1.719-4.764c0-1.554-0.442-2.838-1.325-3.852c-0.884-1.014-2.521-2.01-4.909-2.989
	c-2.39-0.98-4.124-2.272-5.204-3.877c-1.08-1.605-1.62-3.371-1.62-5.296c0-2.703,0.876-5.009,2.627-6.918s4.05-2.863,6.896-2.863
	c1.539,0,2.872,0.16,4.001,0.481c1.13,0.321,2.104,0.786,2.921,1.394l-1.079,2.939c-0.753-0.473-1.562-0.861-2.431-1.166
	c-0.867-0.304-1.841-0.456-2.921-0.456c-1.767,0-3.142,0.558-4.123,1.673c-0.982,1.115-1.474,2.602-1.474,4.46
	c0,1.621,0.491,2.905,1.474,3.852c0.981,0.945,2.667,1.908,5.056,2.888c2.39,0.98,4.116,2.314,5.18,4.004s1.595,3.514,1.595,5.474
	c0,3.04-0.948,5.523-2.847,7.449S208.979,41.111,205.968,41.111z"/>
<g>
	<path class="st2" d="M17.267,39.653c-0.932-0.399-1.801-0.901-2.604-1.485c0.074,5.042-0.021,11.739,1.268,16.651
		c0.063,0.242,0.23,0.42,0.468,0.498c1.031,0.341,2.116,0.341,3.147,0c0.237-0.078,0.405-0.256,0.468-0.498
		c1.289-4.913,1.193-11.608,1.269-16.651c-0.803,0.584-1.672,1.086-2.604,1.485C18.211,39.854,17.733,39.854,17.267,39.653z"/>
	<circle class="st2" cx="17.973" cy="10.667" r="2.435"/>
	<circle class="st2" cx="45.825" cy="10.667" r="2.435"/>
	<path class="st2" d="M58.612,0H5.193C2.337,0,0,2.337,0,5.193v53.419c0,2.856,2.337,5.193,5.193,5.193h53.419
		c2.856,0,5.193-2.337,5.193-5.193V5.193C63.806,2.337,61.469,0,58.612,0z M45.825,4.653c3.321,0,6.015,2.692,6.015,6.014
		s-2.693,6.015-6.015,6.015s-6.014-2.693-6.014-6.015S42.504,4.653,45.825,4.653z M17.973,4.653c3.321,0,6.014,2.692,6.014,6.014
		s-2.692,6.014-6.014,6.014s-6.014-2.692-6.014-6.014S14.651,4.653,17.973,4.653z M23.337,56.174
		c-0.312,1.091-1.036,1.898-2.086,2.328c-2.122,0.867-4.436,0.867-6.557,0c-1.05-0.43-1.774-1.237-2.087-2.328
		c-1.267-4.427-1.958-13.743-1.257-21.386C8.645,30.967,7.64,25.886,8.9,21.344c0.113-0.407,0.332-0.723,0.674-0.971
		c4.262-3.091,12.534-3.092,16.796,0c0.342,0.248,0.562,0.563,0.674,0.971c1.262,4.546,0.257,9.626-2.449,13.446
		C25.295,42.432,24.604,51.747,23.337,56.174z M54.897,46.353c-0.113,0.407-0.332,0.723-0.674,0.971
		c-0.522,0.379-1.123,0.722-1.789,1.02c-0.268,3.161-0.704,5.941-1.244,7.831c-0.312,1.091-1.037,1.898-2.087,2.328
		c-1.032,0.422-2.134,0.65-3.278,0.65c-1.144,0-2.245-0.229-3.278-0.65c-1.05-0.43-1.773-1.237-2.086-2.328
		c-0.54-1.89-0.977-4.67-1.244-7.831c-0.666-0.298-1.267-0.641-1.789-1.02c-0.342-0.248-0.562-0.563-0.674-0.971
		c-1.397-5.034-0.131-10.431,3.241-14.42c-2.115-3.17-2.892-7.276-1.896-10.99c0.113-0.424,0.344-0.753,0.704-1.004
		c1.655-1.157,4.187-1.896,7.022-1.896c2.837,0,5.368,0.74,7.023,1.896c0.359,0.251,0.59,0.58,0.704,1.004
		c0.995,3.714,0.218,7.82-1.896,10.99C55.027,35.922,56.294,41.318,54.897,46.353z"/>
	<path class="st2" d="M23.438,22.764c-2.971-1.501-7.961-1.501-10.932,0c-0.206,0.104-0.339,0.281-0.381,0.508
		c-0.908,4.879,1.417,10.354,5.847,12.751c4.429-2.397,6.754-7.872,5.847-12.751C23.777,23.045,23.645,22.867,23.438,22.764z"/>
	<path class="st2" d="M49.24,34.635c-0.807,0.673-1.705,1.242-2.686,1.68c-0.48,0.214-0.978,0.214-1.458,0
		c-0.98-0.438-1.879-1.007-2.686-1.68c-0.102,0.13-0.2,0.262-0.295,0.395c-1.965,2.74-2.753,6.085-2.138,9.396
		c0.042,0.227,0.175,0.404,0.381,0.508c1.635,0.826,3.843,1.132,5.466,1.132c1.624,0,3.831-0.306,5.467-1.132
		c0.205-0.104,0.338-0.281,0.381-0.508c0.615-3.311-0.174-6.655-2.138-9.396C49.44,34.896,49.342,34.765,49.24,34.635z"/>
	<path class="st2" d="M42.932,49.418c0.142,1.752,0.411,3.721,0.853,5.401c0.063,0.242,0.23,0.42,0.468,0.498
		c0.502,0.166,1.028,0.256,1.573,0.256c0.546,0,1.071-0.09,1.574-0.256c0.237-0.078,0.404-0.256,0.468-0.498
		c0.441-1.681,0.711-3.649,0.853-5.401c-0.921,0.147-1.891,0.226-2.895,0.226C44.822,49.644,43.852,49.565,42.932,49.418z"/>
	<path class="st2" d="M45.049,32.145c0.249,0.188,0.508,0.361,0.776,0.522c0.27-0.161,0.528-0.335,0.777-0.522
		c2.774-2.096,4.209-5.799,3.71-9.223c-0.037-0.253-0.191-0.453-0.427-0.555c-1.268-0.542-2.889-0.745-4.061-0.745
		c-1.17,0-2.792,0.203-4.06,0.745c-0.235,0.102-0.39,0.302-0.427,0.555C40.84,26.346,42.273,30.049,45.049,32.145z"/>
</g>
</svg>
