<?xml version="1.0" encoding="utf-8"?>
<!-- Generator: Adobe Illustrator 16.0.0, SVG Export Plug-In . SVG Version: 6.00 Build 0)  -->
<!DOCTYPE svg PUBLIC "-//W3C//DTD SVG 1.1//EN" "http://www.w3.org/Graphics/SVG/1.1/DTD/svg11.dtd">
<svg version="1.1" id="Layer_1" xmlns="http://www.w3.org/2000/svg" xmlns:xlink="http://www.w3.org/1999/xlink" x="0px" y="0px"
	 width="348px" height="80px" viewBox="0 0 348 80" style="enable-background:new 0 0 348 80;" xml:space="preserve">
<style type="text/css">
<![CDATA[
	.st0{clip-path:url(#SVGID_2_);fill:url(#SVGID_3_);}
	.st1{fill-rule:evenodd;clip-rule:evenodd;fill:#0D65AF;}
	.st2{fill-rule:evenodd;clip-rule:evenodd;fill:#86A0B3;}
	.st3{fill:#5E839B;}
	.st4{fill-rule:evenodd;clip-rule:evenodd;fill:#5E839B;}
	.st5{fill:#0D65AF;}
	.st6{fill-rule:evenodd;clip-rule:evenodd;fill:#008ACC;}
]]>
</style>
<path class="st4" d="M64.497,36.814c-2.355-2.295-5.121-4.415-7.925-6.226L68.12,10.584c7.15,4.331,17.052,15.454,14.343,20.292
	l-1.738,3.01L69.821,27.59L64.497,36.814z"/>
<path class="st2" d="M39.635,33.874l15.652-4.108L66.79,9.842l-27.154,7.125l-2.331,4.039l7.319,4.225L39.635,33.874z
	 M37.562,34.417L37.562,34.417l4.981-8.627L37.562,34.417z"/>
<polygon class="st1" points="66.213,53.845 67.424,54.546 69.377,51.164 95.657,44.267 70.38,29.672 65.226,38.598 66.166,38.48 
	67.851,38.219 69.53,37.913 71.2,37.557 76.342,36.307 "/>
<polygon class="st6" points="58.831,72.479 85.985,65.351 97.533,45.35 70.38,52.478 "/>
<polygon class="st6" points="42.543,2.984 17.484,9.563 33.431,18.769 "/>
<polygon class="st1" points="42.543,25.79 15.389,10.112 3.88,30.048 13.854,35.805 18.33,28.019 21.174,29.606 22.709,30.42 
	24.262,31.199 25.833,31.947 27.419,32.662 29.021,33.341 30.638,33.985 32.268,34.594 33.91,35.167 35.563,35.701 36.635,36.024 
	"/>
<g>
	<defs>
		<path id="SVGID_1_" d="M18.901,30.083c16.368,9.366,36.227,13.224,54.341,8.547L61.72,58.58
			c-18.071,4.764-39.417-0.111-54.212-8.672L18.901,30.083z"/>
	</defs>
	<clipPath id="SVGID_2_">
		<use xlink:href="#SVGID_1_"  style="overflow:visible;"/>
	</clipPath>
	<linearGradient id="SVGID_3_" gradientUnits="userSpaceOnUse" x1="61.9194" y1="61.73" x2="18.8223" y2="31.6908">
		<stop  offset="0" style="stop-color:#5E839B"/>
		<stop  offset="1" style="stop-color:#FFFFFE"/>
	</linearGradient>
	<rect x="7.507" y="30.083" class="st0" width="65.735" height="33.261"/>
</g>
<rect x="185.403" y="25.407" class="st3" width="7.771" height="24.707"/>
<path class="st3" d="M184.984,17.378c0-1.188,0.419-2.198,1.259-3.038c0.832-0.839,1.842-1.259,3.01-1.259
	c1.181,0,2.198,0.419,3.028,1.259c0.841,0.839,1.259,1.85,1.259,3.038c0,1.169-0.418,2.178-1.259,3.017
	c-0.83,0.85-1.848,1.27-3.028,1.27c-1.168,0-2.178-0.42-3.01-1.27C185.403,19.557,184.984,18.547,184.984,17.378"/>
<polygon class="st3" points="166.219,50.585 154.813,25.407 163.128,25.407 168.362,39.02 173.677,25.407 181.921,25.407 
	170.561,50.585 "/>
<rect x="143.56" y="25.407" class="st3" width="7.771" height="24.707"/>
<path class="st3" d="M143.14,17.378c0-1.188,0.42-2.198,1.26-3.038c0.83-0.839,1.84-1.259,3.01-1.259
	c1.179,0,2.196,0.419,3.027,1.259c0.84,0.839,1.259,1.85,1.259,3.038c0,1.169-0.419,2.178-1.259,3.017
	c-0.831,0.85-1.849,1.27-3.027,1.27c-1.17,0-2.18-0.42-3.01-1.27C143.56,19.557,143.14,18.547,143.14,17.378"/>
<path class="st3" d="M137.021,13.555v36.559h-7.779v-1.992c-1.983,1.644-4.269,2.464-6.852,2.464c-3.295,0-6.046-1.224-8.252-3.661
	c-2.215-2.448-3.313-5.511-3.313-9.19c0-3.769,1.116-6.841,3.358-9.237c2.242-2.393,5.118-3.581,8.628-3.581
	c2.179,0,4.322,0.518,6.431,1.563V13.555H137.021z M129.241,43.36V31.562c-1.411-0.965-2.857-1.439-4.341-1.439
	c-1.956,0-3.475,0.681-4.563,2.038c-1.09,1.366-1.635,3.269-1.635,5.733c0,2.27,0.535,4.081,1.616,5.457
	c1.09,1.366,2.528,2.056,4.324,2.056C126.231,45.407,127.759,44.717,129.241,43.36z"/>
<path class="st5" d="M327.894,32.633v17.48h-4.789V36.716c0-2.671-0.355-4.53-1.07-5.583c-0.714-1.063-1.965-1.591-3.742-1.591
	c-1,0-1.912,0.232-2.732,0.679c-0.832,0.456-1.777,1.261-2.841,2.412v17.48h-4.761V26.042h4.761v3.162
	c2.421-2.421,4.796-3.636,7.118-3.636c3.045,0,5.413,1.449,7.092,4.342c2.546-2.93,5.206-4.395,7.976-4.395
	c2.342,0,4.262,0.857,5.77,2.563c1.511,1.715,2.261,4.324,2.261,7.824v14.211h-4.762V35.849c0-2.001-0.408-3.537-1.222-4.601
	c-0.821-1.062-2.002-1.598-3.537-1.598C331.439,29.65,329.599,30.641,327.894,32.633"/>
<path class="st5" d="M303.01,38.493h-16.935c0.124,2.304,0.894,4.136,2.322,5.493c1.421,1.367,3.251,2.045,5.5,2.045
	c3.146,0,6.039-0.972,8.691-2.93v4.654c-1.463,0.983-2.919,1.68-4.356,2.1c-1.439,0.42-3.127,0.624-5.066,0.624
	c-2.652,0-4.796-0.553-6.431-1.651c-1.644-1.1-2.955-2.574-3.938-4.431c-0.99-1.857-1.483-4.01-1.483-6.449
	c0-3.662,1.036-6.646,3.118-8.941c2.072-2.295,4.771-3.439,8.083-3.439c3.189,0,5.743,1.117,7.637,3.35
	c1.902,2.235,2.858,5.227,2.858,8.977V38.493z M286.181,35.643h12.113c-0.116-1.903-0.689-3.368-1.696-4.395
	c-1.011-1.035-2.377-1.545-4.083-1.545c-1.707,0-3.108,0.511-4.197,1.545C287.229,32.275,286.513,33.74,286.181,35.643z"/>
<path class="st5" d="M261.272,29.856l8.948-8.79v4.975h7.62v4.287h-7.62v11.8c0,2.76,1.144,4.136,3.431,4.136
	c1.704,0,3.511-0.573,5.411-1.724v4.448c-1.83,1.027-3.831,1.545-5.993,1.545c-2.18,0-3.993-0.635-5.438-1.912
	c-0.456-0.383-0.832-0.814-1.128-1.295c-0.293-0.481-0.543-1.107-0.748-1.884c-0.196-0.777-0.295-2.251-0.295-4.438V30.329h-4.188
	V29.856z"/>
<path class="st5" d="M242.845,48.389v-5.135c1.34,0.947,2.717,1.706,4.127,2.295c1.402,0.58,2.581,0.875,3.545,0.875
	c0.992,0,1.85-0.242,2.564-0.733c0.715-0.49,1.071-1.072,1.071-1.749c0-0.706-0.232-1.277-0.695-1.742
	c-0.467-0.465-1.458-1.135-2.994-2.001c-3.071-1.715-5.08-3.17-6.036-4.386c-0.948-1.215-1.421-2.536-1.421-3.966
	c0-1.848,0.713-3.358,2.152-4.528c1.446-1.169,3.297-1.751,5.564-1.751c2.358,0,4.771,0.662,7.244,1.992v4.707
	c-2.824-1.706-5.136-2.563-6.933-2.563c-0.919,0-1.669,0.197-2.232,0.589c-0.571,0.394-0.857,0.912-0.857,1.554
	c0,0.563,0.259,1.091,0.776,1.6c0.511,0.5,1.422,1.116,2.708,1.83l1.696,0.965c4.021,2.27,6.021,4.78,6.021,7.538
	c0,1.976-0.769,3.592-2.313,4.851c-1.545,1.268-3.528,1.903-5.947,1.903c-1.439,0-2.707-0.151-3.824-0.456
	C245.944,49.765,244.542,49.201,242.845,48.389"/>
<polygon class="st5" points="235.279,26.042 240.646,26.042 223.615,62.385 218.299,62.385 226.49,44.959 217.176,26.042 
	222.586,26.042 229.081,39.618 "/>
<path class="st5" d="M198.748,48.389v-5.135c1.341,0.947,2.717,1.706,4.127,2.295c1.402,0.58,2.581,0.875,3.546,0.875
	c0.991,0,1.849-0.242,2.563-0.733c0.715-0.49,1.073-1.072,1.073-1.749c0-0.706-0.234-1.277-0.697-1.742
	c-0.465-0.465-1.456-1.135-2.992-2.001c-3.072-1.715-5.082-3.17-6.038-4.386c-0.947-1.215-1.419-2.536-1.419-3.966
	c0-1.848,0.713-3.358,2.15-4.528c1.446-1.169,3.297-1.751,5.566-1.751c2.356,0,4.769,0.662,7.242,1.992v4.707
	c-2.822-1.706-5.136-2.563-6.933-2.563c-0.919,0-1.669,0.197-2.231,0.589c-0.57,0.394-0.858,0.912-0.858,1.554
	c0,0.563,0.259,1.091,0.778,1.6c0.509,0.5,1.422,1.116,2.706,1.83l1.696,0.965c4.021,2.27,6.021,4.78,6.021,7.538
	c0,1.976-0.769,3.592-2.313,4.851c-1.545,1.268-3.528,1.903-5.947,1.903c-1.439,0-2.707-0.151-3.824-0.456
	C201.848,49.765,200.447,49.201,198.748,48.389"/>
<path class="st3" d="M341.043,59.335l-0.771-0.466c-0.483-0.294-0.826-0.584-1.03-0.868c-0.204-0.286-0.307-0.615-0.307-0.985
	c0-0.558,0.193-1.011,0.58-1.357c0.387-0.348,0.889-0.521,1.507-0.521c0.592,0,1.131,0.164,1.628,0.496v1.149
	c-0.511-0.49-1.062-0.733-1.649-0.733c-0.33,0-0.603,0.075-0.813,0.229c-0.214,0.153-0.321,0.351-0.321,0.59
	c0,0.213,0.078,0.414,0.233,0.599c0.157,0.186,0.407,0.379,0.755,0.582l0.775,0.456c0.865,0.514,1.297,1.169,1.297,1.965
	c0,0.568-0.189,1.028-0.57,1.383c-0.38,0.354-0.874,0.532-1.481,0.532c-0.698,0-1.334-0.216-1.908-0.643v-1.287
	c0.546,0.692,1.179,1.037,1.899,1.037c0.317,0,0.582-0.087,0.791-0.266c0.212-0.176,0.317-0.399,0.317-0.666
	C341.975,60.128,341.663,59.722,341.043,59.335"/>
<path class="st3" d="M325.141,62.305v-7.077h1.771c0.717,0,1.284,0.178,1.704,0.533c0.421,0.354,0.631,0.832,0.631,1.438
	c0,0.412-0.104,0.768-0.309,1.069c-0.206,0.299-0.502,0.525-0.887,0.673c0.227,0.149,0.447,0.353,0.662,0.607
	c0.218,0.258,0.521,0.704,0.912,1.343c0.247,0.401,0.443,0.704,0.594,0.906l0.375,0.508h-1.205l-0.311-0.469
	c-0.009-0.015-0.031-0.044-0.061-0.084l-0.196-0.279l-0.314-0.517l-0.339-0.553c-0.21-0.29-0.401-0.52-0.576-0.693
	c-0.172-0.173-0.329-0.295-0.471-0.372c-0.139-0.074-0.376-0.113-0.706-0.113h-0.263v3.08H325.141z M326.454,56.089h-0.301v2.233
	h0.385c0.511,0,0.864-0.044,1.055-0.132c0.193-0.087,0.339-0.219,0.446-0.397c0.107-0.177,0.159-0.38,0.159-0.605
	c0-0.223-0.059-0.425-0.178-0.604c-0.118-0.182-0.284-0.308-0.499-0.383C327.308,56.128,326.954,56.089,326.454,56.089z
	 M334.226,55.128c1.095,0,2.007,0.345,2.732,1.038c0.727,0.691,1.091,1.56,1.091,2.602c0,1.045-0.368,1.908-1.1,2.592
	c-0.735,0.683-1.662,1.025-2.778,1.025c-1.067,0-1.956-0.343-2.667-1.025c-0.712-0.684-1.065-1.541-1.065-2.57
	c0-1.058,0.357-1.932,1.072-2.623C332.228,55.473,333.131,55.128,334.226,55.128z M334.266,56.089c-0.81,0-1.476,0.254-1.996,0.761
	c-0.521,0.506-0.784,1.153-0.784,1.939c0,0.763,0.263,1.397,0.784,1.902c0.525,0.508,1.181,0.761,1.967,0.761
	c0.79,0,1.448-0.259,1.978-0.773c0.529-0.518,0.792-1.16,0.792-1.932c0-0.748-0.263-1.379-0.792-1.892
	C335.685,56.345,335.035,56.089,334.266,56.089z"/>
<path class="st3" d="M318.874,62.305v-7.077h1.773c0.715,0,1.284,0.178,1.704,0.533c0.421,0.354,0.631,0.832,0.631,1.438
	c0,0.412-0.104,0.768-0.311,1.069c-0.206,0.299-0.501,0.525-0.887,0.673c0.229,0.149,0.447,0.353,0.664,0.607
	c0.218,0.258,0.521,0.704,0.911,1.343c0.248,0.401,0.444,0.704,0.595,0.906l0.374,0.508h-1.206l-0.309-0.469
	c-0.011-0.015-0.031-0.044-0.061-0.084l-0.196-0.279l-0.314-0.517l-0.339-0.553c-0.21-0.29-0.401-0.52-0.576-0.693
	c-0.172-0.173-0.331-0.295-0.471-0.372c-0.139-0.074-0.376-0.113-0.706-0.113h-0.263v3.08H318.874z M320.189,56.089h-0.301v2.233
	h0.383c0.513,0,0.866-0.044,1.057-0.132c0.191-0.087,0.339-0.219,0.444-0.397c0.109-0.177,0.161-0.38,0.161-0.605
	c0-0.223-0.059-0.425-0.177-0.604c-0.119-0.182-0.287-0.308-0.5-0.383C321.043,56.128,320.689,56.089,320.189,56.089z"/>
<path class="st3" d="M313.778,55.128c1.095,0,2.007,0.345,2.735,1.038c0.726,0.691,1.091,1.56,1.091,2.602
	c0,1.045-0.369,1.908-1.102,2.592c-0.735,0.683-1.662,1.025-2.779,1.025c-1.064,0-1.955-0.343-2.667-1.025
	c-0.711-0.684-1.065-1.541-1.065-2.57c0-1.058,0.357-1.932,1.075-2.623C311.781,55.473,312.687,55.128,313.778,55.128
	 M313.819,56.089c-0.809,0-1.477,0.254-1.996,0.761c-0.521,0.506-0.784,1.153-0.784,1.939c0,0.763,0.263,1.397,0.786,1.902
	c0.523,0.508,1.18,0.761,1.965,0.761c0.791,0,1.448-0.259,1.978-0.773c0.528-0.518,0.791-1.16,0.791-1.932
	c0-0.748-0.263-1.379-0.791-1.892C315.238,56.345,314.591,56.089,313.819,56.089z"/>
<polygon class="st3" points="305.449,55.228 309.224,55.228 309.224,56.129 306.464,56.129 306.464,58.105 309.224,58.105 
	309.224,59.006 306.464,59.006 306.464,62.305 305.449,62.305 "/>
<path class="st3" d="M292.893,58.768c0-0.354,0.126-0.655,0.378-0.909c0.251-0.25,0.553-0.377,0.904-0.377
	c0.357,0,0.66,0.125,0.912,0.375c0.248,0.25,0.374,0.553,0.374,0.911c0,0.355-0.126,0.658-0.378,0.91
	c-0.251,0.25-0.554,0.377-0.908,0.377c-0.352,0-0.653-0.127-0.904-0.381C293.019,59.422,292.893,59.12,292.893,58.768"/>
<path class="st3" d="M281.478,59.335l-0.77-0.466c-0.483-0.294-0.824-0.584-1.032-0.868c-0.204-0.286-0.307-0.615-0.307-0.985
	c0-0.558,0.195-1.011,0.582-1.357c0.385-0.348,0.889-0.521,1.505-0.521c0.591,0,1.133,0.164,1.627,0.496v1.149
	c-0.509-0.49-1.058-0.733-1.646-0.733c-0.331,0-0.601,0.075-0.814,0.229c-0.213,0.153-0.319,0.351-0.319,0.59
	c0,0.213,0.077,0.414,0.233,0.599c0.155,0.186,0.405,0.379,0.752,0.582l0.777,0.456c0.864,0.514,1.297,1.169,1.297,1.965
	c0,0.568-0.189,1.028-0.571,1.383c-0.379,0.354-0.872,0.532-1.48,0.532c-0.699,0-1.336-0.216-1.908-0.643v-1.287
	c0.547,0.692,1.178,1.037,1.896,1.037c0.317,0,0.584-0.087,0.794-0.266c0.212-0.176,0.317-0.399,0.317-0.666
	C282.41,60.128,282.099,59.722,281.478,59.335"/>
<path class="st3" d="M275.065,55.188h0.714l3.167,7.117h-1.04l-0.941-2.099h-3.01l-0.889,2.099h-1.04L275.065,55.188z
	 M276.549,59.306l-1.139-2.563l-1.058,2.563H276.549z"/>
<rect x="270.224" y="55.228" class="st3" width="1.013" height="7.077"/>
<path class="st3" d="M263.979,62.305v-7.077h1.771c0.717,0,1.286,0.178,1.705,0.533c0.42,0.354,0.632,0.832,0.632,1.438
	c0,0.412-0.104,0.768-0.311,1.069c-0.206,0.299-0.501,0.525-0.887,0.673c0.227,0.149,0.447,0.353,0.664,0.607
	c0.216,0.258,0.521,0.704,0.911,1.343c0.246,0.401,0.444,0.704,0.593,0.906l0.375,0.508h-1.205l-0.309-0.469
	c-0.011-0.015-0.033-0.044-0.062-0.084l-0.196-0.279l-0.314-0.517l-0.339-0.553c-0.208-0.29-0.401-0.52-0.576-0.693
	c-0.172-0.173-0.329-0.295-0.47-0.372c-0.14-0.074-0.377-0.113-0.707-0.113h-0.261v3.08H263.979z M265.295,56.089h-0.301v2.233
	h0.383c0.513,0,0.864-0.044,1.055-0.132c0.193-0.087,0.339-0.219,0.446-0.397c0.107-0.177,0.159-0.38,0.159-0.605
	c0-0.223-0.059-0.425-0.175-0.604c-0.121-0.182-0.285-0.308-0.5-0.383C266.146,56.128,265.793,56.089,265.295,56.089z"/>
<polygon class="st3" points="259.911,53.189 258.768,54.707 258.2,54.707 258.883,53.189 "/>
<path class="st3" d="M258.886,55.128c1.093,0,2.003,0.345,2.733,1.038c0.726,0.691,1.091,1.56,1.091,2.602
	c0,1.045-0.369,1.908-1.103,2.592c-0.734,0.683-1.661,1.025-2.778,1.025c-1.066,0-1.957-0.343-2.667-1.025
	c-0.711-0.684-1.065-1.541-1.065-2.57c0-1.058,0.357-1.932,1.075-2.623C256.887,55.473,257.791,55.128,258.886,55.128
	 M258.925,56.089c-0.809,0-1.477,0.254-1.998,0.761c-0.521,0.506-0.782,1.153-0.782,1.939c0,0.763,0.261,1.397,0.786,1.902
	c0.523,0.508,1.178,0.761,1.965,0.761c0.789,0,1.448-0.259,1.978-0.773c0.528-0.518,0.791-1.16,0.791-1.932
	c0-0.748-0.263-1.379-0.791-1.892C260.344,56.345,259.696,56.089,258.925,56.089z"/>
<path class="st3" d="M252.413,59.335l-0.77-0.466c-0.485-0.294-0.828-0.584-1.032-0.868c-0.204-0.286-0.307-0.615-0.307-0.985
	c0-0.558,0.193-1.011,0.58-1.357c0.387-0.348,0.891-0.521,1.507-0.521c0.591,0,1.131,0.164,1.627,0.496v1.149
	c-0.511-0.49-1.062-0.733-1.648-0.733c-0.329,0-0.603,0.075-0.814,0.229c-0.211,0.153-0.319,0.351-0.319,0.59
	c0,0.213,0.079,0.414,0.234,0.599c0.154,0.186,0.406,0.379,0.753,0.582l0.777,0.456c0.864,0.514,1.295,1.169,1.295,1.965
	c0,0.568-0.189,1.028-0.569,1.383c-0.381,0.354-0.873,0.532-1.481,0.532c-0.7,0-1.335-0.216-1.908-0.643v-1.287
	c0.544,0.692,1.179,1.037,1.897,1.037c0.317,0,0.582-0.087,0.792-0.266c0.212-0.176,0.317-0.399,0.317-0.666
	C253.344,60.128,253.034,59.722,252.413,59.335"/>
<rect x="248.075" y="55.228" class="st3" width="1.015" height="7.077"/>
<polygon class="st3" points="246.278,55.228 247.287,55.228 244.299,62.334 244.071,62.334 241.021,55.228 242.04,55.228 
	244.166,60.196 "/>
<rect x="239.219" y="55.228" class="st3" width="1.012" height="7.077"/>
<path class="st3" d="M231.438,62.294v-7.066h2.387c0.963,0,1.724,0.145,2.284,0.435c0.56,0.288,1.007,0.712,1.339,1.273
	c0.328,0.56,0.496,1.171,0.496,1.832c0,0.474-0.092,0.927-0.273,1.356c-0.183,0.433-0.443,0.814-0.781,1.141
	c-0.345,0.338-0.744,0.593-1.2,0.767c-0.267,0.104-0.513,0.173-0.735,0.209c-0.223,0.035-0.647,0.054-1.275,0.054H231.438z
	 M233.718,56.129h-1.266v5.264h1.295c0.508,0,0.901-0.035,1.183-0.104c0.28-0.069,0.513-0.156,0.7-0.265
	c0.188-0.104,0.359-0.237,0.515-0.392c0.5-0.508,0.748-1.146,0.748-1.92c0-0.76-0.256-1.379-0.771-1.858
	c-0.186-0.179-0.404-0.326-0.648-0.439c-0.245-0.117-0.477-0.191-0.697-0.229C234.558,56.148,234.205,56.129,233.718,56.129z"/>
</svg>
